<svg width="512" height="512" viewBox="0 0 512 512" fill="none" xmlns="http://www.w3.org/2000/svg">
  <rect width="512" height="512" rx="100" fill="#3949AB"/>
  <path d="M256 128C185.308 128 128 185.308 128 256C128 326.692 185.308 384 256 384C326.692 384 384 326.692 384 256C384 185.308 326.692 128 256 128ZM256 352C203.371 352 160 308.629 160 256C160 203.371 203.371 160 256 160C308.629 160 352 203.371 352 256C352 308.629 308.629 352 256 352Z" fill="white"/>
  <path d="M256 192C221.488 192 192 221.488 192 256C192 290.512 221.488 320 256 320C290.512 320 320 290.512 320 256C320 221.488 290.512 192 256 192ZM256 288C239.431 288 224 272.569 224 256C224 239.431 239.431 224 256 224C272.569 224 288 239.431 288 256C288 272.569 272.569 288 256 288Z" fill="white"/>
  <path d="M376 112H136C123.163 112 112 123.163 112 136V376C112 388.837 123.163 400 136 400H376C388.837 400 400 388.837 400 376V136C400 123.163 388.837 112 376 112ZM368 368H144V144H368V368Z" fill="white"/>
  <path d="M176 176L336 176" stroke="white" stroke-width="16" stroke-linecap="round"/>
  <path d="M176 208L304 208" stroke="white" stroke-width="16" stroke-linecap="round"/>
  <path d="M176 304L304 304" stroke="white" stroke-width="16" stroke-linecap="round"/>
  <path d="M176 336L336 336" stroke="white" stroke-width="16" stroke-linecap="round"/>
</svg>